<?xml version="1.0" encoding="UTF-8" standalone="no"?><!DOCTYPE svg PUBLIC "-//W3C//DTD SVG 1.1//EN" "http://www.w3.org/Graphics/SVG/1.1/DTD/svg11.dtd"><svg width="100%" height="100%" viewBox="0 0 240 240" version="1.1" xmlns="http://www.w3.org/2000/svg" xmlns:xlink="http://www.w3.org/1999/xlink" xml:space="preserve" xmlns:serif="http://www.serif.com/" style="fill-rule:evenodd;clip-rule:evenodd;stroke-miterlimit:1.5;"><rect id="bond" x="0" y="0" width="24" height="24" style="fill:none;"/><rect x="4" y="11" width="16" height="2" style="fill:#fff;"/><rect id="doubleBond" x="24" y="0" width="24" height="24" style="fill:none;"/><rect x="28" y="9" width="16" height="2" style="fill:#ebebeb;"/><rect x="28" y="9" width="16" height="2" style="fill:#fff;"/><rect x="28" y="13" width="16" height="2" style="fill:#ebebeb;"/><rect x="28" y="13" width="16" height="2" style="fill:#fff;"/><rect id="trippleBond" x="48" y="0" width="24" height="24" style="fill:none;"/><rect x="52" y="7" width="16" height="2" style="fill:#ebebeb;"/><rect x="52" y="7" width="16" height="2" style="fill:#fff;"/><rect x="52" y="11" width="16" height="2" style="fill:#ebebeb;"/><rect x="52" y="11" width="16" height="2" style="fill:#fff;"/><rect x="52" y="15" width="16" height="2" style="fill:#ebebeb;"/><rect x="52" y="15" width="16" height="2" style="fill:#fff;"/><rect id="chain" x="72" y="0" width="24" height="24" style="fill:none;"/><text x="88.85px" y="20.879px" style="font-family:'ArialMT', 'Arial', sans-serif;font-size:11px;fill:#fff;">n</text><path d="M74.072,14l6.928,-4l6,4l6.928,-4" style="fill:none;stroke:#fff;stroke-width:1.5px;"/><rect id="up_bond" x="96" y="0" width="24" height="24" style="fill:none;"/><path d="M100,11l0,2l16,3l0,-8l-16,3Z" style="fill:#fff;"/><rect id="down_bond" x="120" y="0" width="24" height="24" style="fill:none;"/><path d="M138,8.375l-0,7.25l2,0.375l0,-8l-2,0.375Zm-2,6.875l-3,-0.562l0,-5.375l3,-0.563l-0,6.5Zm-5,-0.937l-3,-0.563l-0,-3.5l3,-0.562l0,4.625Zm-5,-3.688l-2,0.375l0,2l2,0.375l-0,-2.75Z" style="fill:#fff;"/><rect id="undefined_bond" x="144" y="0" width="24" height="24" style="fill:none;"/><path d="M146.625,12c0,-1.38 0.84,-2.5 1.875,-2.5c1.035,0 1.875,1.12 1.875,2.5" style="fill:none;stroke:#fff;stroke-width:1px;stroke-linecap:round;stroke-linejoin:round;"/><path d="M154.125,12c0,1.38 -0.84,2.5 -1.875,2.5c-1.035,0 -1.875,-1.12 -1.875,-2.5" style="fill:none;stroke:#fff;stroke-width:1px;stroke-linecap:round;stroke-linejoin:round;"/><path d="M154.125,12c0,-1.38 0.84,-2.5 1.875,-2.5c1.035,0 1.875,1.12 1.875,2.5" style="fill:none;stroke:#fff;stroke-width:1px;stroke-linecap:round;stroke-linejoin:round;"/><path d="M161.625,12c0,1.38 -0.84,2.5 -1.875,2.5c-1.035,0 -1.875,-1.12 -1.875,-2.5" style="fill:none;stroke:#fff;stroke-width:1px;stroke-linecap:round;stroke-linejoin:round;"/><path d="M161.625,12c-0,-1.38 0.84,-2.5 1.875,-2.5c1.035,0 1.875,1.12 1.875,2.5" style="fill:none;stroke:#fff;stroke-width:1px;stroke-linecap:round;stroke-linejoin:round;"/><rect id="undefined_stereo_bond" x="168" y="0" width="24" height="24" style="fill:none;"/><path d="M170.625,12c0,-1.38 0.84,-2.5 1.875,-2.5c1.035,0 1.875,1.12 1.875,2.5" style="fill:none;stroke:#fff;stroke-width:1px;stroke-linecap:round;stroke-linejoin:round;"/><path d="M178.125,12c0,1.38 -0.84,2.5 -1.875,2.5c-1.035,0 -1.875,-1.12 -1.875,-2.5" style="fill:none;stroke:#fff;stroke-width:1px;stroke-linecap:round;stroke-linejoin:round;"/><path d="M178.125,12c0,-1.38 0.84,-2.5 1.875,-2.5c1.035,0 1.875,1.12 1.875,2.5" style="fill:none;stroke:#fff;stroke-width:1px;stroke-linecap:round;stroke-linejoin:round;"/><path d="M185.625,12c0,1.38 -0.84,2.5 -1.875,2.5c-1.035,0 -1.875,-1.12 -1.875,-2.5" style="fill:none;stroke:#fff;stroke-width:1px;stroke-linecap:round;stroke-linejoin:round;"/><path d="M185.625,12c0,-1.38 0.84,-2.5 1.875,-2.5c1.035,0 1.875,1.12 1.875,2.5" style="fill:none;stroke:#fff;stroke-width:1px;stroke-linecap:round;stroke-linejoin:round;"/><rect id="reactionArrow" x="192" y="0" width="24" height="24" style="fill:none;"/><path d="M205.15,11.25l0,-2.175l5.85,2.925l-5.85,2.925l0,-2.175l-9.15,0c-0.414,0 -0.75,-0.336 -0.75,-0.75c-0,-0.414 0.336,-0.75 0.75,-0.75l9.15,0Z" style="fill:#fff;"/><rect id="Artboard1" x="216" y="0" width="24" height="24" style="fill:none;"/><rect id="triangle" x="0" y="24" width="24" height="24" style="fill:none;"/><path d="M12,28.1l9.116,15.8l-18.232,0l9.116,-15.8Z" style="fill:none;stroke:#fff;stroke-width:1.5px;stroke-linecap:round;stroke-linejoin:round;"/><rect id="square" x="24" y="24" width="24" height="24" style="fill:none;"/><rect x="27.534" y="27.534" width="16.932" height="16.932" style="fill:none;stroke:#fff;stroke-width:1.5px;"/><rect id="pentagon" x="48" y="24" width="24" height="24" style="fill:none;"/><path d="M60,26l9.275,6.907l-3.543,11.176l-11.464,-0l-3.543,-11.176l9.275,-6.907Zm0,1.87l7.523,5.602c-0,0 -2.889,9.111 -2.889,9.111c0,-0 -9.268,-0 -9.268,-0c-0,-0 -2.889,-9.111 -2.889,-9.111l7.523,-5.602Z" style="fill:#fff;"/><rect id="hexagon" x="72" y="24" width="24" height="24" style="fill:none;"/><path d="M84,25.408l9.173,5.296l0,10.592l-9.173,5.296l-9.173,-5.296l-0,-10.592l9.173,-5.296Zm-0,1.732l7.673,4.43c0,-0 0,8.86 0,8.86c0,0 -7.673,4.43 -7.673,4.43c0,0 -7.673,-4.43 -7.673,-4.43c-0,0 -0,-8.86 -0,-8.86l7.673,-4.43Z" style="fill:#fff;"/><rect id="octagon" x="96" y="24" width="24" height="24" style="fill:none;"/><path d="M112.104,26.091l5.805,5.805l-0,8.208l-5.805,5.805l-8.208,-0l-5.805,-5.805l0,-8.208l5.805,-5.805l8.208,0Zm-0.621,1.5l4.926,4.926c-0,-0 -0,6.966 -0,6.966c-0,0 -4.926,4.926 -4.926,4.926c0,-0 -6.966,-0 -6.966,-0c-0,-0 -4.926,-4.926 -4.926,-4.926c0,0 0,-6.966 0,-6.966c0,-0 4.926,-4.926 4.926,-4.926l6.966,0Z" style="fill:#fff;"/><rect id="benzene" x="120" y="24" width="24" height="24" style="fill:none;"/><path d="M131.173,25.408l9.173,5.296l0,10.592l-9.173,5.296l-9.173,-5.296l0,-10.592l9.173,-5.296Zm0,1.732l7.673,4.43c0,-0 0,8.86 0,8.86c0,0 -7.673,4.43 -7.673,4.43c0,0 -7.673,-4.43 -7.673,-4.43c0,0 0,-8.86 0,-8.86l7.673,-4.43Z" style="fill:#fff;"/><path d="M125.72,32.851l5.453,-3.148" style="fill:none;stroke:#fff;stroke-width:1.5px;stroke-linejoin:round;"/><path d="M136.627,32.851l-0,6.298" style="fill:none;stroke:#fff;stroke-width:1.5px;stroke-linejoin:round;"/><path d="M131.173,42.297l-5.453,-3.148" style="fill:none;stroke:#fff;stroke-width:1.5px;stroke-linejoin:round;"/><rect id="template" x="144" y="24" width="24" height="24" style="fill:none;"/><path d="M166,36l-19,0l0,3l19,0l0,-3Zm-1.5,1.5l-16,-0l16,-0Z" style="fill:#fff;"/><path d="M151,36l11,-0" style="fill:none;stroke:#fff;stroke-width:1.5px;"/><path d="M148,41l17,0" style="fill:none;stroke:#fff;stroke-width:1.5px;"/><path d="M156.5,30l0,6" style="fill:none;stroke:#fff;stroke-width:3px;"/><circle cx="156.5" cy="30" r="2.784" style="fill:#fff;"/><rect id="Artboard11" serif:id="Artboard1" x="168" y="24" width="24" height="24" style="fill:none;"/><clipPath id="_clip1"><rect x="168" y="24" width="24" height="24"/></clipPath><g clip-path="url(#_clip1)"><path d="M192,24l-24,-0l0,24l24,0l0,-24Zm-1,1l0,22c0,0 -22,0 -22,0c-0,0 0,-22 0,-22c-0,-0 22,-0 22,-0Z" style="fill:#fff;"/></g><rect id="Artboard12" serif:id="Artboard1" x="192" y="24" width="24" height="24" style="fill:none;"/><rect id="Artboard13" serif:id="Artboard1" x="216" y="24" width="24" height="24" style="fill:none;"/><rect id="new" x="0" y="48" width="24" height="24" style="fill:none;"/><path d="M18.5,54.853l-2.786,-3.603l-10.214,-0l0,17.5l13,0l0,-13.897Z" style="fill:none;stroke:#fff;stroke-width:1.5px;stroke-linejoin:round;"/><rect id="open" x="24" y="48" width="24" height="24" style="fill:none;"/><path d="M42.823,54.867l-6.844,-0l-0.855,-1.867l-4.166,0l-0.967,1.867l-2.566,-0l0,12.133l15.398,0l-0,-12.133Z" style="fill:#fff;"/><path d="M43.573,54.867c-0,-0.415 -0.336,-0.75 -0.75,-0.75l-6.362,-0c-0,-0 -0.655,-1.429 -0.655,-1.429c-0.122,-0.267 -0.389,-0.438 -0.682,-0.438l-4.166,0c-0.281,0 -0.538,0.156 -0.666,0.405l-0.757,1.462c0,-0 -2.11,-0 -2.11,-0c-0.414,-0 -0.75,0.335 -0.75,0.75l0,12.133c0,0.414 0.336,0.75 0.75,0.75l15.398,0c0.414,0 0.75,-0.336 0.75,-0.75l-0,-12.133Zm-1.5,0.75l-0,10.633c-0,0 -13.898,0 -13.898,0c0,0 0,-10.633 0,-10.633c0,-0 1.816,-0 1.816,-0c0.281,-0 0.538,-0.157 0.666,-0.406l0.757,-1.461c-0,0 3.229,0 3.229,0c-0,-0 0.654,1.429 0.654,1.429c0.123,0.267 0.389,0.438 0.682,0.438l6.094,-0Z" style="fill:#fff;"/><path d="M45,57l-15.398,-0l-2.177,10l15.398,0l2.177,-10Z" style="fill:#fff;"/><path d="M45.733,57.16c0.048,-0.222 -0.007,-0.454 -0.149,-0.631c-0.142,-0.176 -0.357,-0.279 -0.584,-0.279l-15.398,-0c-0.352,-0 -0.657,0.246 -0.732,0.59l-2.178,10c-0.048,0.222 0.007,0.454 0.149,0.631c0.142,0.176 0.357,0.279 0.584,0.279l15.398,0c0.352,0 0.658,-0.246 0.733,-0.59l2.177,-10Zm-1.664,0.59l-1.851,8.5c0,0 -13.862,0 -13.862,0c-0,0 1.851,-8.5 1.851,-8.5l13.862,-0Z" style="fill:#ededed;"/><path d="M46,58l-15,0l-3.575,9l15.398,0l3.177,-9Z" style="fill:#fff;"/><rect id="save" x="48" y="48" width="24" height="24" style="fill:none;"/><path d="M69,53.67c0,-1.198 -0.972,-2.17 -2.17,-2.17l-13.66,0c-1.198,0 -2.17,0.972 -2.17,2.17l0,12.66l2.17,2.17l13.66,0c1.198,0 2.17,-0.972 2.17,-2.17l0,-12.66Zm-4,9.33l-10,0l0,4l10,0l0,-4Zm-5,-8c1.104,0 2,0.896 2,2c-0,1.104 -0.896,2 -2,2c-1.104,0 -2,-0.896 -2,-2c-0,-1.104 0.896,-2 2,-2Z" style="fill:#fff;"/><rect id="print" x="72" y="48" width="24" height="24" style="fill:none;"/><path d="M75,59l-2,0l0,7l4,0l0,2l14,0l0,-2l4,0l0,-7l-2,0l0,-2.5l-2,0l0,-6.5l-14,0l0,6.5l-2,0l0,2.5Zm15,5l-12,0l0,3l12,0l0,-3Zm0,-13l-12,0l0,5l12,0l0,-5Z" style="fill:#fff;"/><rect id="undo" x="96" y="48" width="24" height="24" style="fill:none;"/><clipPath id="_clip2"><rect x="96" y="48" width="24" height="24"/></clipPath><g clip-path="url(#_clip2)"><path d="M105.564,58.207l-7.564,-3.62l7.434,-3.879l0.13,7.499Z" style="fill:#fff;"/><path d="M104.838,65.528c0,-0 3.055,-0.07 6.838,-0c8.631,0.192 8.23,-11.124 0,-10.941c-1.605,-0.126 -4.786,-0.132 -7.677,-0.103" style="fill:none;stroke:#fff;stroke-width:2.5px;"/></g><rect id="redo" x="120" y="48" width="24" height="24" style="fill:none;"/><clipPath id="_clip3"><rect x="120" y="48" width="24" height="24"/></clipPath><g clip-path="url(#_clip3)"><path d="M134.566,50.708l7.434,3.879l-7.564,3.62l0.13,-7.499Z" style="fill:#fff;"/><path d="M135.162,65.528c-0,-0 -3.055,-0.07 -6.838,-0c-8.631,0.192 -8.23,-11.124 -0,-10.941c1.605,-0.126 4.786,-0.132 7.677,-0.103" style="fill:none;stroke:#fff;stroke-width:2.5px;"/></g><rect id="cut" x="144" y="48" width="24" height="24" style="fill:none;"/><path d="M149.626,64.412c0.949,-1.357 2.638,-1.816 3.768,-1.025c1.131,0.792 1.278,2.535 0.328,3.892c-0.949,1.356 -2.637,1.815 -3.768,1.024c-1.13,-0.791 -1.277,-2.535 -0.328,-3.891Z" style="fill:none;stroke:#fff;stroke-width:1.5px;stroke-linejoin:round;"/><path d="M161,50l-6,9l-0.651,2l-1.349,2l1.349,2c-0,-0 4.651,-5.667 5.651,-8c0.919,-2.145 1,-7 1,-7Z" style="fill:#fff;"/><path d="M161.374,64.412c-0.949,-1.357 -2.638,-1.816 -3.768,-1.025c-1.131,0.792 -1.278,2.535 -0.328,3.892c0.949,1.356 2.637,1.815 3.768,1.024c1.13,-0.791 1.277,-2.535 0.328,-3.891Z" style="fill:none;stroke:#fff;stroke-width:1.5px;stroke-linejoin:round;"/><path d="M150,50l6,9l0.651,2l1.349,2l-1.349,2c0,0 -4.651,-5.667 -5.651,-8c-0.919,-2.145 -1,-7 -1,-7Z" style="fill:#fff;"/><path d="M161,50l-6,9l-0.651,2l-1.349,2l1.349,2c-0,-0 4.651,-5.667 5.651,-8c0.919,-2.145 1,-7 1,-7Z" style="fill:#fff;"/><path d="M150,50l6,9l0.651,2l1.349,2l-1.349,2c0,0 -4.651,-5.667 -5.651,-8c-0.919,-2.145 -1,-7 -1,-7Z" style="fill:#fff;"/><rect id="copy" x="168" y="48" width="24" height="24" style="fill:none;"/><path d="M183.151,54.523c0,-1.587 -1.288,-2.875 -2.875,-2.875l-5.75,-0c-1.587,-0 -2.875,1.288 -2.875,2.875l0,5.75c0,1.587 1.288,2.875 2.875,2.875l5.75,-0c1.587,-0 2.875,-1.288 2.875,-2.875l0,-5.75Z" style="fill:none;stroke:#fff;stroke-width:1.5px;stroke-linejoin:round;"/><path d="M188,58.75c0,-1.518 -1.232,-2.75 -2.75,-2.75l-5.5,0c-1.518,0 -2.75,1.232 -2.75,2.75l0,5.5c0,1.518 1.232,2.75 2.75,2.75l5.5,0c1.518,0 2.75,-1.232 2.75,-2.75l0,-5.5Z" style="fill:#fff;"/><rect id="paste" x="192" y="48" width="24" height="24" style="fill:none;"/><path d="M213.5,58.513l-2.234,-2.513l-7.956,0c-0.447,0 -0.81,0.363 -0.81,0.81l0,12.88c0,0.447 0.363,0.81 0.81,0.81l9.38,0c0.447,0 0.81,-0.363 0.81,-0.81l-0,-11.177Z" style="fill:#fff;"/><path d="M210,54.118c0,-1.169 -0.949,-2.118 -2.118,-2.118l-10.764,0c-1.169,0 -2.118,0.949 -2.118,2.118l0,12.764c0,1.169 0.949,2.118 2.118,2.118l10.764,0c1.169,0 2.118,-0.949 2.118,-2.118l0,-12.764Z" style="fill:none;stroke:#fff;stroke-width:1.5px;stroke-linejoin:round;"/><rect x="199" y="50" width="7" height="2" style="fill:#fff;"/><rect x="199" y="54" width="7" height="1" style="fill:#fff;"/><rect id="lasso" x="216" y="48" width="24" height="24" style="fill:none;"/><path d="M226.874,52.435c4.858,-1.187 9.427,0.408 10.196,3.558c0.769,3.151 -2.551,6.672 -7.409,7.858c-4.858,1.186 -9.427,-0.409 -10.196,-3.559c-0.77,-3.151 2.55,-6.671 7.409,-7.857Z" style="fill:none;stroke:#fff;stroke-width:1.5px;stroke-linejoin:round;"/><path d="M228.267,64.117c0.417,-0.769 0.631,-1.215 0.547,-2.113c-0.102,-1.092 -1.276,-1.91 -2.332,-1.684c-1.664,0.356 -3.093,1.562 -4.158,2.83c-0.493,0.588 -1.665,1.819 -1.275,2.807c0.369,0.935 0.836,0.887 1.381,1.636c0.739,1.014 0.836,2.728 -0.43,3.407" style="fill:none;stroke:#fff;stroke-width:1.5px;stroke-linejoin:round;"/><rect id="select" x="0" y="72" width="24" height="24" style="fill:none;"/><rect x="4" y="75" width="17" height="17" style="fill:none;stroke:#fff;stroke-width:1.5px;stroke-dasharray:4.5,1.5,0,0;stroke-dashoffset:2.25;"/><rect id="erase" x="24" y="72" width="24" height="24" style="fill:none;"/><rect x="28" y="84" width="8" height="7" style="fill:none;stroke:#fff;stroke-width:1.5px;stroke-linejoin:round;"/><path d="M28,84l8,-7l8,-0l-8,7" style="fill:none;stroke:#fff;stroke-width:1.5px;stroke-linejoin:round;"/><path d="M36,91l8,-7l0,-7" style="fill:none;stroke:#fff;stroke-width:1.5px;stroke-linejoin:round;"/><rect id="rotate" x="48" y="72" width="24" height="24" style="fill:none;"/><path d="M71.417,90.192l-5.488,1.231l0.355,-5.614l5.133,4.383Z" style="fill:#fff;"/><path d="M52.577,89.929c-3.272,-4.097 -2.603,-10.08 1.494,-13.352c4.097,-3.272 10.08,-2.603 13.352,1.494c2.493,3.121 2.698,7.336 0.843,10.614" style="fill:none;stroke:#fff;stroke-width:1.5px;"/><circle cx="60" cy="84" r="2.5" style="fill:#fff;"/><rect id="rotate3d" x="72" y="72" width="24" height="24" style="fill:none;"/><path d="M90.65,90.634c2.208,-1.394 3.07,-2.857 3.072,-4.123c0.001,-0.838 -0.353,-1.635 -1.034,-2.341c-0.871,-0.902 -2.317,-1.669 -4.149,-2.173c-4.429,-1.216 -7.558,-0.853 -11.271,1.213c-1.971,1.097 -2.856,2.152 -3.045,3.078c-0.198,0.972 -0.316,2.78 0.777,3.712c1.282,1.094 1.413,1.707 4,3l3,-2.764c-1.775,-0.887 -5.452,-2.172 -5.832,-2.576c-0.277,-0.296 -0.468,-0.576 -0.488,-0.879c-0.02,-0.283 0.128,-0.559 0.4,-0.864c0.395,-0.444 1.026,-0.9 1.918,-1.396c3.341,-1.859 6.158,-2.171 10.144,-1.077c1.284,0.352 2.352,0.838 3.095,1.432c0.603,0.483 0.986,1.023 0.985,1.633c-0.002,0.914 -0.778,1.85 -2.372,2.857l0.8,1.268Z" style="fill:#fff;"/><path d="M78.746,88.957l2.254,-1.971l4,6.5l-10.822,0l4.568,-4.529Z" style="fill:#fff;"/><circle cx="84" cy="81.25" r="6.25" style="fill:#fff;"/><rect id="flipHorizontal" x="96" y="72" width="24" height="24" style="fill:none;"/><path d="M107.3,74l-9.797,20l9.797,0l0,-20Z" style="fill:#fff;"/><path d="M108.7,74l9.797,20l-9.797,0l-0,-20Zm1.3,5.711l6.365,12.994l-6.365,-0l0,-12.994Z" style="fill:#fff;"/><rect id="flipVertical" x="120" y="72" width="24" height="24" style="fill:none;"/><path d="M122,84.7l20,9.797l0,-9.797l-20,-0Z" style="fill:#fff;"/><path d="M122,83.3l20,-9.797l-0,9.797l-20,0Zm5.711,-1.3l12.994,-6.365l-0,6.365l-12.994,-0Z" style="fill:#fff;"/><rect id="cleanup" x="144" y="72" width="24" height="24" style="fill:none;"/><path d="M150.184,84.5l11.632,0l2.684,8l-17,0l2.684,-8Z" style="fill:none;stroke:#fff;stroke-width:1.5px;stroke-linejoin:round;"/><path d="M159.5,92.5l0,-4" style="fill:none;stroke:#fff;stroke-width:1.5px;"/><path d="M150.481,82.5l11,-0" style="fill:none;stroke:#fff;stroke-width:1.5px;"/><path d="M155.981,82.5l0,-7" style="fill:none;stroke:#fff;stroke-width:1.5px;"/><rect id="zoomin" x="168" y="72" width="24" height="24" style="fill:none;"/><g><path d="M176.496,72c4.689,-0 8.496,3.807 8.496,8.496c0,4.689 -3.807,8.496 -8.496,8.496c-4.689,0 -8.496,-3.807 -8.496,-8.496c0,-4.689 3.807,-8.496 8.496,-8.496Zm0,1.5c3.861,0 6.996,3.135 6.996,6.996c0,3.861 -3.135,6.996 -6.996,6.996c-3.861,0 -6.996,-3.135 -6.996,-6.996c0,-3.861 3.135,-6.996 6.996,-6.996Z" style="fill:#fff;"/><path d="M182.013,85l-1.013,1.013l7,7l1.013,-1.013l-7,-7Z" style="fill:#fff;"/><path d="M182.013,85l-1.013,1.013l7,7l1.013,-1.013l-7,-7Z" style="fill:#fff;"/><path d="M184.992,86.512l-2.48,2.48l5.031,5.031l2.48,-2.48l-5.031,-5.031Z" style="fill:#fff;"/><path d="M184.992,86.512l-2.48,2.48l5.031,5.031l2.48,-2.48l-5.031,-5.031Zm0,2.122l2.91,2.909c-0,0 -0.359,0.359 -0.359,0.359c0,-0 -2.909,-2.91 -2.909,-2.91l0.358,-0.358Z" style="fill:#fff;"/></g><text x="171.309px" y="86.653px" style="font-family:'Arial-BoldMT', 'Arial', sans-serif;font-weight:700;font-size:18px;fill:#fff;">+</text><rect id="zoomout" x="192" y="72" width="24" height="24" style="fill:none;"/><text x="195.847px" y="85.307px" style="font-family:'Arial-BoldMT', 'Arial', sans-serif;font-weight:700;font-size:18px;fill:#fff;">–</text><g><path d="M200.496,72c4.689,-0 8.496,3.807 8.496,8.496c0,4.689 -3.807,8.496 -8.496,8.496c-4.689,0 -8.496,-3.807 -8.496,-8.496c0,-4.689 3.807,-8.496 8.496,-8.496Zm0,1.5c3.861,0 6.996,3.135 6.996,6.996c0,3.861 -3.135,6.996 -6.996,6.996c-3.861,0 -6.996,-3.135 -6.996,-6.996c0,-3.861 3.135,-6.996 6.996,-6.996Z" style="fill:#fff;"/><path d="M206.013,85l-1.013,1.013l7,7l1.013,-1.013l-7,-7Z" style="fill:#fff;"/><path d="M206.013,85l-1.013,1.013l7,7l1.013,-1.013l-7,-7Z" style="fill:#fff;"/><path d="M208.992,86.512l-2.48,2.48l5.031,5.031l2.48,-2.48l-5.031,-5.031Z" style="fill:#fff;"/><path d="M208.992,86.512l-2.48,2.48l5.031,5.031l2.48,-2.48l-5.031,-5.031Zm0,2.122l2.91,2.909c-0,0 -0.359,0.359 -0.359,0.359c0,-0 -2.909,-2.91 -2.909,-2.91l0.358,-0.358Z" style="fill:#fff;"/></g><rect id="Artboard14" serif:id="Artboard1" x="216" y="72" width="24" height="24" style="fill:none;"/><rect id="P" x="0" y="96" width="24" height="24" style="fill:none;"/><text x="5.33px" y="115.163px" style="font-family:'ArialMT', 'Arial', sans-serif;font-size:20px;fill:#fff;">P</text><rect id="S" x="0" y="120" width="24" height="24" style="fill:none;"/><text x="5.33px" y="139.163px" style="font-family:'ArialMT', 'Arial', sans-serif;font-size:20px;fill:#fff;">S</text><rect id="F" x="0" y="144" width="24" height="24" style="fill:none;"/><text x="5.892px" y="163.163px" style="font-family:'ArialMT', 'Arial', sans-serif;font-size:20px;fill:#fff;">F</text><rect id="C" x="0" y="168" width="24" height="24" style="fill:none;"/><text x="4.778px" y="187.163px" style="font-family:'ArialMT', 'Arial', sans-serif;font-size:20px;fill:#fff;">C</text><rect id="H" x="0" y="192" width="24" height="24" style="fill:none;"/><text x="4.778px" y="211.163px" style="font-family:'ArialMT', 'Arial', sans-serif;font-size:20px;fill:#fff;">H</text><rect id="I" x="0" y="216" width="24" height="24" style="fill:none;"/><text x="9.222px" y="235.163px" style="font-family:'ArialMT', 'Arial', sans-serif;font-size:20px;fill:#fff;">I</text><rect id="Cl" x="24" y="96" width="24" height="24" style="fill:none;"/><text x="26.557px" y="115.163px" style="font-family:'ArialMT', 'Arial', sans-serif;font-size:20px;fill:#fff;">Cl</text><rect id="Br" x="24" y="120" width="24" height="24" style="fill:none;"/><text x="26px" y="139.163px" style="font-family:'ArialMT', 'Arial', sans-serif;font-size:20px;fill:#fff;">Br</text><rect id="O" x="24" y="144" width="24" height="24" style="fill:none;"/><text x="28.222px" y="163.163px" style="font-family:'ArialMT', 'Arial', sans-serif;font-size:20px;fill:#fff;">O</text><rect id="N" x="24" y="168" width="24" height="24" style="fill:none;"/><text x="28.778px" y="187.163px" style="font-family:'ArialMT', 'Arial', sans-serif;font-size:20px;fill:#fff;">N</text><rect id="enterR" x="24" y="192" width="24" height="24" style="fill:none;"/><text x="28.778px" y="211.158px" style="font-family:'Arial-ItalicMT', 'Arial', sans-serif;font-style:italic;font-size:20px;fill:#fff;">R</text><rect id="enterelement" x="24" y="216" width="24" height="24" style="fill:none;"/><text x="29.892px" y="234.943px" style="font-family:'TimesNewRomanPSMT', 'Times New Roman', serif;font-size:20px;fill:#fff;">T</text><rect x="28" y="236" width="16" height="1.864" style="fill:#fff;"/><rect id="periodictable" x="48" y="96" width="24" height="24" style="fill:none;"/><rect x="52" y="112" width="16" height="3" style="fill:#fff;"/><rect x="49.5" y="103.457" width="21" height="6.031" style="fill:#fff;"/><rect x="49.5" y="100.5" width="4.5" height="5" style="fill:#fff;"/><rect x="49.5" y="98" width="2.25" height="5" style="fill:#fff;"/><rect x="63" y="100.5" width="7.5" height="5" style="fill:#fff;"/><rect x="68" y="98" width="2.5" height="5" style="fill:#fff;"/><rect id="Artboard15" serif:id="Artboard1" x="48" y="120" width="24" height="24" style="fill:none;"/><rect id="Artboard16" serif:id="Artboard1" x="48" y="144" width="24" height="24" style="fill:none;"/><rect id="Artboard17" serif:id="Artboard1" x="48" y="168" width="24" height="24" style="fill:none;"/><rect id="Artboard18" serif:id="Artboard1" x="48" y="192" width="24" height="24" style="fill:none;"/><rect id="Artboard19" serif:id="Artboard1" x="48" y="216" width="24" height="24" style="fill:none;"/><rect id="Artboard110" serif:id="Artboard1" x="72" y="96" width="24" height="24" style="fill:none;"/><rect id="Artboard111" serif:id="Artboard1" x="72" y="120" width="24" height="24" style="fill:none;"/><rect id="Artboard112" serif:id="Artboard1" x="72" y="144" width="24" height="24" style="fill:none;"/><rect id="Artboard113" serif:id="Artboard1" x="72" y="168" width="24" height="24" style="fill:none;"/><rect id="Artboard114" serif:id="Artboard1" x="72" y="192" width="24" height="24" style="fill:none;"/><rect id="Artboard115" serif:id="Artboard1" x="72" y="216" width="24" height="24" style="fill:none;"/><rect id="Artboard116" serif:id="Artboard1" x="96" y="96" width="24" height="24" style="fill:none;"/><rect id="Artboard117" serif:id="Artboard1" x="96" y="120" width="24" height="24" style="fill:none;"/><rect id="Artboard118" serif:id="Artboard1" x="96" y="144" width="24" height="24" style="fill:none;"/><rect id="Artboard119" serif:id="Artboard1" x="96" y="168" width="24" height="24" style="fill:none;"/><rect id="Artboard120" serif:id="Artboard1" x="96" y="192" width="24" height="24" style="fill:none;"/><rect id="Artboard121" serif:id="Artboard1" x="96" y="216" width="24" height="24" style="fill:none;"/><rect id="Artboard122" serif:id="Artboard1" x="120" y="96" width="24" height="24" style="fill:none;"/><rect id="Artboard123" serif:id="Artboard1" x="120" y="120" width="24" height="24" style="fill:none;"/><rect id="Artboard124" serif:id="Artboard1" x="120" y="144" width="24" height="24" style="fill:none;"/><rect id="Artboard125" serif:id="Artboard1" x="120" y="168" width="24" height="24" style="fill:none;"/><rect id="Artboard126" serif:id="Artboard1" x="120" y="192" width="24" height="24" style="fill:none;"/><rect id="Artboard127" serif:id="Artboard1" x="120" y="216" width="24" height="24" style="fill:none;"/><rect id="Artboard128" serif:id="Artboard1" x="144" y="96" width="24" height="24" style="fill:none;"/><rect id="Artboard129" serif:id="Artboard1" x="144" y="120" width="24" height="24" style="fill:none;"/><rect id="Artboard130" serif:id="Artboard1" x="144" y="144" width="24" height="24" style="fill:none;"/><rect id="Artboard131" serif:id="Artboard1" x="144" y="168" width="24" height="24" style="fill:none;"/><rect id="Artboard132" serif:id="Artboard1" x="144" y="192" width="24" height="24" style="fill:none;"/><rect id="Artboard133" serif:id="Artboard1" x="144" y="216" width="24" height="24" style="fill:none;"/><rect id="Artboard134" serif:id="Artboard1" x="168" y="96" width="24" height="24" style="fill:none;"/><rect id="Artboard135" serif:id="Artboard1" x="168" y="120" width="24" height="24" style="fill:none;"/><rect id="Artboard136" serif:id="Artboard1" x="168" y="144" width="24" height="24" style="fill:none;"/><rect id="Artboard137" serif:id="Artboard1" x="168" y="168" width="24" height="24" style="fill:none;"/><rect id="Artboard138" serif:id="Artboard1" x="168" y="192" width="24" height="24" style="fill:none;"/><rect id="Artboard139" serif:id="Artboard1" x="168" y="216" width="24" height="24" style="fill:none;"/><rect id="Artboard140" serif:id="Artboard1" x="192" y="96" width="24" height="24" style="fill:none;"/><rect id="Artboard141" serif:id="Artboard1" x="192" y="120" width="24" height="24" style="fill:none;"/><rect id="Artboard142" serif:id="Artboard1" x="192" y="144" width="24" height="24" style="fill:none;"/><rect id="Artboard143" serif:id="Artboard1" x="192" y="168" width="24" height="24" style="fill:none;"/><rect id="Artboard144" serif:id="Artboard1" x="192" y="192" width="24" height="24" style="fill:none;"/><rect id="Artboard145" serif:id="Artboard1" x="192" y="216" width="24" height="24" style="fill:none;"/><rect id="Artboard146" serif:id="Artboard1" x="216" y="96" width="24" height="24" style="fill:none;"/><rect id="Artboard147" serif:id="Artboard1" x="216" y="120" width="24" height="24" style="fill:none;"/><rect id="Artboard148" serif:id="Artboard1" x="216" y="144" width="24" height="24" style="fill:none;"/><rect id="Artboard149" serif:id="Artboard1" x="216" y="168" width="24" height="24" style="fill:none;"/><rect id="Artboard150" serif:id="Artboard1" x="216" y="192" width="24" height="24" style="fill:none;"/><rect id="Artboard151" serif:id="Artboard1" x="216" y="216" width="24" height="24" style="fill:none;"/></svg>